<svg xmlns="http://www.w3.org/2000/svg" viewBox="0 0 220 220" role="img" aria-labelledby="title">
  <title id="title">Shnurok browser mascot</title>
  <g fill="none" stroke="#0A0A0A" stroke-linecap="round" stroke-linejoin="round" stroke-width="5">
    <rect x="47" y="44" width="126" height="88" rx="10" fill="#B0DDFF"/>
    <path d="M47 68h126"/>
    <path d="M62 57h10M84 57h10"/>
    <path d="M83 91c9 8 21 8 29 0M126 91c9 8 21 8 29 0"/>
    <path d="M79 114c18 12 44 12 62 0"/>
    <path d="M78 132v33M142 132v33"/>
    <path d="M73 166h28M119 166h28"/>
    <path d="M63 83c-22 6-35 21-35 45"/>
    <path d="M31 96l-16-18M31 96l-21 3"/>
    <path d="M171 86c25 11 34 29 26 53"/>
    <path d="M194 112l14 10M194 112l-14 8"/>
  </g>
</svg>
